<svg width="246" height="200" viewBox="0 0 246 200" fill="none" xmlns="http://www.w3.org/2000/svg">
<path fill-rule="evenodd" clip-rule="evenodd" d="M68.5263 134.805C70.8988 134.173 77.814 133.95 92.2631 134.039C111.75 134.158 112.782 134.233 115.582 135.723C121.516 138.883 125.036 144.863 124.162 150.301C123.575 153.951 122.075 156.17 118.839 158.173C116.255 159.771 115.985 159.786 90.8322 159.786C66.501 159.786 65.3295 159.725 62.9329 158.325C59.2943 156.198 57.2075 152.753 57.2075 148.874C57.2075 142.278 61.7713 136.606 68.5263 134.805ZM112.582 141.917C109.157 140.494 72.1943 140.533 68.8868 141.964C65.1101 143.598 62.7923 148.743 64.6768 151.308C65.6211 152.594 67.0037 152.68 89.7842 152.875C116.827 153.105 117.303 153.03 117.303 148.54C117.303 145.566 115.595 143.17 112.582 141.917Z" fill="black"/>
<path fill-rule="evenodd" clip-rule="evenodd" d="M21.7138 136.594C22.5451 136.234 25.9615 136.061 29.3061 136.208C36.6599 136.532 45.829 139.742 49.6543 143.331C56.8813 150.112 50.6936 158.003 37.671 158.612C32.5823 158.85 31.6803 158.675 27.5567 156.656C21.5909 153.734 17.1439 147.826 17.1439 142.823C17.1439 140.821 19.5605 137.526 21.7138 136.594ZM36.818 144.512C31.2606 142.699 25.3512 141.942 24.718 142.96C23.2913 145.259 29.24 150.944 34.1212 151.946C36.9643 152.53 43.9184 151.172 45.0544 149.812C46.1168 148.538 42.9892 146.525 36.818 144.512Z" fill="black"/>
<path fill-rule="evenodd" clip-rule="evenodd" d="M145.204 137.035C147.494 136.414 151.433 136.038 154.629 136.136C159.286 136.279 160.393 136.561 161.925 137.993C162.918 138.921 163.928 140.576 164.17 141.67C164.809 144.564 162.067 150.334 158.495 153.609C154.089 157.651 150.019 158.975 143.249 158.573C134.625 158.06 129.688 154.98 128.972 149.665C128.665 147.397 128.939 146.504 130.507 144.65C132.673 142.09 139.378 138.616 145.204 137.035ZM157.034 143.102C156.369 142.031 152.744 142.236 147.35 143.649C142.375 144.953 136.388 147.941 136.408 149.11C136.454 151.775 146.592 152.776 151.17 150.569C154.065 149.172 157.829 144.38 157.034 143.102Z" fill="black"/>
<path fill-rule="evenodd" clip-rule="evenodd" d="M59.3537 30.605C62.1746 27.7986 64.6168 29.6185 65.3251 35.0555C65.9289 39.6918 67.9984 43.4328 71.8016 46.7631C74.9679 49.5359 78.9904 51.2454 82.3499 51.2456C85.067 51.2456 87.3722 53.2228 87.1168 55.3353C86.8528 57.516 86.0324 57.9695 80.511 58.9844C78.1408 59.4207 74.9851 60.633 73.3568 61.7327L70.4427 63.7011L96.9133 64.1452C119.19 64.5189 124.007 64.7853 127.319 65.8252C139.619 69.6885 145.347 76.0436 156.039 97.6868L159.116 103.915H167.253C176.452 103.915 178.749 104.723 180.606 108.617C183.45 114.58 179.838 123.787 173.368 127.067C171.847 127.838 170.479 128.538 170.328 128.623C170.177 128.708 171.29 131.591 172.801 135.029L175.549 141.281L175.807 157.042C176.096 174.76 175.702 177.317 172.098 181.119C169.779 183.563 169.688 183.883 169.398 190.494C169.116 196.907 168.972 197.446 167.126 199.026L165.987 200H138.343L137.28 198.875C135.785 197.292 135.511 196.214 135.294 191.046L135.042 185.053H90.8783C66.5884 185.053 46.4998 185.267 46.2379 185.528C45.9754 185.789 45.7607 188.526 45.7607 191.61C45.7607 196.615 45.5718 197.406 44.0043 198.964L42.964 200H15.2897L14.2278 198.876C12.6897 197.248 12.4654 196.272 12.2422 190.229C12.004 183.766 11.8868 183.33 9.96808 181.723C6.03256 178.429 5.57462 175.723 5.82716 157.243L6.05492 140.569L8.73775 134.663C10.2129 131.414 11.4206 128.647 11.4206 128.512C11.4193 128.377 10.5958 128.063 9.58871 127.811C8.5814 127.56 6.40186 126.003 4.74495 124.353C0.285843 119.91 -1.18224 113.739 0.990393 108.565C2.57863 104.784 5.08066 103.916 14.4255 103.906L22.5096 103.897L27.0802 94.6473C35.4835 77.6438 40.8132 71.303 50.0707 67.2973C51.832 66.5358 53.4078 65.8141 53.5738 65.6938C54.2004 65.2375 50.2976 61.725 47.6792 60.3891C46.1761 59.6233 43.3349 58.8064 41.3648 58.5736C39.3939 58.3416 37.323 57.6963 36.7628 57.139C34.2009 54.5909 36.8826 51.2456 41.4871 51.2456C44.8081 51.2454 50.9282 48.192 53.3663 45.3181C56.0419 42.1657 57.8882 37.8463 57.9068 34.6975C57.9168 32.9936 58.4401 31.5139 59.3537 30.605ZM19.2902 194.346L38.9642 193.95L39.3897 185.053H19.2902V194.346ZM142.342 194.306H162.374V185.053H142.342V194.306ZM12.8514 142.823V158.822C12.8514 173.938 12.9317 174.907 14.3102 176.378C15.7389 177.904 16.1502 177.936 34.5558 177.936H53.3425L54.2487 175.445C55.4856 172.042 58.4559 168.687 61.2645 167.519C63.0982 166.757 69.4519 166.548 90.8378 166.548C116.87 166.548 118.202 166.613 120.945 168.005C123.705 169.405 128.034 174.904 128.034 177.008C128.035 177.747 131.874 177.936 146.94 177.936H165.848L167.33 176.061C168.732 174.288 168.811 173.325 168.772 158.445L168.731 142.705L158.348 119.217L23.2236 118.854L12.8514 142.823ZM91.7894 173.164C77.6881 173.083 65.5069 173.285 64.7194 173.613C63.0342 174.315 60.3971 177.074 60.9159 177.592C61.1148 177.79 74.7416 177.868 91.1983 177.766L121.119 177.58L117.428 173.31L91.7894 173.164ZM19.1707 110.898C19.4522 110.209 8.29411 110.109 7.60523 110.795C7.34269 111.055 7.12808 112.529 7.12805 114.069C7.12805 116.304 7.61911 117.356 9.56076 119.288C13.786 123.492 14.0834 123.232 19.1707 110.898ZM173.405 110.753C171.778 110.132 162.374 110.219 162.373 110.854C162.371 111.147 163.395 113.71 164.648 116.548C167.05 121.991 167.953 122.585 170.804 120.597C174.116 118.29 175.859 111.69 173.405 110.753ZM122.794 71.9695C118.46 71.1724 82.6527 70.4427 72.1293 70.9374C65.3457 71.2555 65.1098 71.4434 65.0869 76.5479C65.0754 79.0995 63.9596 80.427 61.8256 80.427C59.5985 80.427 57.923 78.2066 57.9229 75.253C57.9229 73.8395 57.6811 72.5361 57.3863 72.3581C57.0916 72.1801 55.0791 72.6903 52.9149 73.4924C50.0848 74.5408 47.7648 76.1801 44.6513 79.3295C40.9433 83.0811 39.3253 85.6924 33.3687 97.5478L26.4158 111.388L90.2174 111.569C125.308 111.67 154.184 111.588 154.386 111.388C154.801 110.974 151.073 103.086 144.818 91.1463C138.387 78.8668 132.519 73.7581 122.794 71.9695ZM61.2345 46.3801L51.5 55.2929L61.741 63.9833L70.5846 55.2929L61.2345 46.3801Z" fill="black"/>
<path fill-rule="evenodd" clip-rule="evenodd" d="M162.466 4.91061C163.826 4.05439 166.462 4.11991 168.324 5.05727C170.609 6.21018 230.952 66.1816 232.222 68.5623C232.813 69.6698 233.201 71.4827 233.084 72.5909C232.915 74.1915 233.641 75.4143 236.613 78.5406C240.686 82.8253 241.088 84.1851 238.954 86.4456C237.557 87.9246 237.56 87.9387 239.988 90.9906C243.754 95.7251 245.637 100.196 245.958 105.162C246.532 114.049 241.382 120.325 224.407 131.427C213.704 138.426 207.142 144.228 205.215 148.399C204.451 150.053 203.894 152.9 203.885 155.196C203.867 159.448 203.049 160.854 200.593 160.854C198.018 160.854 197.068 158.935 197.107 153.805C197.179 144.337 202.946 137.422 220.477 125.785C232.708 117.666 236.796 113.964 238.536 109.43C239.73 106.322 239.733 105.925 238.597 102.333C237.936 100.24 236.323 97.2582 235.014 95.7059C232.72 92.9879 232.583 92.9304 231.251 94.1295C229.037 96.1231 227.408 95.6128 223.389 91.6634C219.914 88.2499 219.377 87.9709 216.657 88.1659L213.701 88.3779L167.407 42.4023L164.899 44.8197C162.646 46.9918 162.499 47.3565 163.456 48.4076C164.932 50.0311 164.796 51.7003 162.764 56.8582L161.007 61.3184L165.585 65.5777C168.238 68.0468 170.496 70.847 170.959 72.2392C171.982 75.3246 170.905 79.5612 168.534 81.7775C166.701 83.49 162.173 84.4467 159.299 83.7293C157.744 83.3407 117.01 43.6873 113.146 38.7998C109.674 34.4084 112.111 26.8772 117.584 25.082C121.889 23.6706 124.804 24.8523 130.078 30.1462L134.624 34.71L138.977 33.0134C144.032 31.0426 145.717 30.9141 147.341 32.376C148.398 33.3267 148.76 33.1856 150.901 30.988L153.285 28.5406L151.034 25.9891C149.356 24.0888 148.781 22.7503 148.781 20.7448C148.781 18.3 149.369 17.472 155.133 11.7896C158.627 8.34661 161.926 5.25141 162.466 4.91061ZM224.366 83.274L226.047 85.0534C228.085 87.2121 228.999 87.2761 230.723 85.3808C232.015 83.9595 231.998 83.8844 229.905 81.8012L227.766 79.6743L224.366 83.274ZM165.218 11.3879C164.648 11.391 155.935 20.2414 155.935 20.8178C155.937 21.372 215.747 80.6782 216.595 80.9657C216.892 81.0667 219.215 79.0612 221.758 76.509L226.381 71.868L195.991 41.6287C179.275 24.9959 165.428 11.3879 165.218 11.3879ZM120.436 31.3167C118.914 31.3168 117.865 33.2638 118.639 34.6516C119.036 35.362 128.845 45.3578 140.439 56.8644C161.642 77.91 163.025 79.0056 164.283 75.7465C164.607 74.9041 158.842 68.7347 142.987 52.9547C131.03 41.0536 120.881 31.3167 120.436 31.3167ZM143.787 38.4793C143.582 38.5046 142.628 38.8369 141.667 39.2189C139.971 39.8922 140.155 40.1496 147.736 47.7146C152.034 52.0041 155.644 55.5134 155.762 55.516C155.877 55.516 156.3 54.6564 156.701 53.6053C157.389 51.8067 157.04 51.3025 150.795 45.0644C147.146 41.4181 143.992 38.4551 143.787 38.4793ZM153.524 38.4175L155.212 40.2059C156.141 41.1885 157.141 41.9925 157.435 41.9929C157.73 41.9929 158.987 40.9827 160.228 39.7478L162.485 37.5035L158.386 33.4269L153.524 38.4175Z" fill="black"/>
<path fill-rule="evenodd" clip-rule="evenodd" d="M22.0017 12.6335C24.2731 10.0313 27.0398 11.9011 27.9297 16.6377C29.0372 22.5352 32.2151 25.6334 38.274 26.7224C41.8002 27.3558 42.8991 28.1936 42.8991 30.2491C42.8991 32.3374 41.7586 33.2125 38.2488 33.819C32.5542 34.8033 27.8754 39.5102 27.8752 44.2553C27.8752 46.4816 25.9763 49.1103 24.368 49.1103C22.5038 49.1101 20.9766 47.0206 20.4786 43.7889C19.7167 38.8395 15.3723 34.7125 9.96877 33.8044C3.81999 32.7709 4.0095 28.2566 10.2692 26.6751C16.0491 25.2153 19.721 21.631 20.4786 16.7093C20.7183 15.1521 21.4036 13.3181 22.0017 12.6335ZM24.5 24L17.1276 30.2491L24.5 37L32.5 30.2491L24.5 24Z" fill="black"/>
<path fill-rule="evenodd" clip-rule="evenodd" d="M90.7078 0C92.5286 0.000102986 94.4093 2.24084 94.4093 4.40947C94.4094 7.18595 96.7274 11.5179 99.4186 13.7706C101.427 15.4517 103.059 16.0743 108.848 17.3682C111.043 17.8586 111.998 19.9553 110.931 21.9396C110.439 22.852 108.796 23.5673 105.874 24.1388C100.382 25.2143 96.4146 28.6612 95.1555 33.452C93.3913 40.1662 93.3698 40.2062 91.4456 40.4297C89.049 40.708 87.2551 38.9058 87.2551 36.2197C87.255 33.2489 84.837 28.8787 82.0047 26.7293C80.6834 25.7265 77.7689 24.54 75.5282 24.0922C70.6777 23.1229 69.3404 21.5207 71.1239 18.8133C71.8637 17.6896 72.95 17.0758 74.2155 17.0659C80.4388 17.0158 87.2551 10.4253 87.2551 4.45813C87.2552 3.43751 87.7883 2.01781 88.4393 1.30185C89.0904 0.585863 90.1112 0 90.7078 0ZM90.8322 11.7896L82.3499 20.3945L90.8322 28.5406L98.5 20L90.8322 11.7896Z" fill="black"/>
</svg>
