<svg width="233" height="177" viewBox="0 0 233 177" fill="none" xmlns="http://www.w3.org/2000/svg">
<path d="M223.362 17.2031L232.362 17.3301L232.192 23.3301C232.099 26.6301 230.603 48.2301 228.87 71.3301C227.136 94.4301 225.188 127.505 224.539 144.83C223.401 175.271 223.294 176.33 221.362 176.33C219.412 176.33 217.054 176.265 217.192 151.884C217.322 128.816 218.856 102.039 223.362 44.1338C224.861 24.8699 226.085 23.6572 224.754 23.6592C223.928 23.6602 215.876 24.1462 206.862 24.7402C193.414 25.6252 191.431 23.7531 190.756 22.6611C189.167 20.0902 192.404 18.8894 203.366 17.9844C209.413 17.4844 218.412 17.1331 223.362 17.2031Z" fill="black"/>
<path d="M115.182 30.8984C117.53 30.8415 117.948 31.1965 117.682 33.0244C117.427 34.7712 115.797 35.7664 109.689 37.9043C91.2187 44.3693 65.652 59.812 43.5 74.5C27.194 85.312 22.6768 88.7351 18.4648 97.8301C11.1539 113.616 5.752 144.765 6.5 166.83C6.766 174.669 5.21104 175.33 3.42504 175.33C0.371404 175.33 -0.441749 169.888 0.209217 153.83C0.887211 137.113 3.58761 120.864 7.98754 107.021C13.8905 88.4465 17.2779 84.0999 36.0149 71.0469C53.8919 58.5929 84.8867 41.6882 101.362 35.4062C105.212 33.9383 109.262 32.3376 110.362 31.8506C111.462 31.3636 113.631 30.9354 115.182 30.8984Z" fill="black"/>
<path d="M147.92 144.976C148.227 144.896 149.352 145.478 150.42 146.27C152.141 147.546 152.192 147.872 150.862 149.155C149.66 150.315 142.387 152.909 114.362 153.83C95.1117 154.463 75.3117 155.162 70.3616 155.382C35.298 156.947 17.1243 155.063 16.3918 153.879C14.3218 150.53 17.8996 150.01 51.3616 148.801C69.5116 148.145 98.5366 147.049 115.862 146.365C133.183 145.682 147.606 145.056 147.92 144.976Z" fill="black"/>
<path fill-rule="evenodd" clip-rule="evenodd" d="M179.362 133.717C196.224 132.777 198.769 133.175 202.664 137.364C205.577 140.496 205.931 141.473 205.664 145.623L205.362 150.33L192.362 151.083C185.212 151.498 175.312 151.723 170.362 151.583L161.362 151.33L161.057 147.136C160.707 142.311 162.823 137.495 166.121 135.61C167.353 134.906 173.312 134.054 179.362 133.717ZM184.744 139.053C172.267 138.798 170.989 138.941 168.531 140.875C167.063 142.03 165.862 143.859 165.862 144.94C165.862 146.843 166.405 146.883 183.112 146.231C192.6 145.86 200.574 145.368 200.834 145.137C201.095 144.906 200.628 143.505 199.798 142.023L198.288 139.33L184.744 139.053Z" fill="black"/>
<path fill-rule="evenodd" clip-rule="evenodd" d="M142.405 18.4629C160.315 16.691 173.081 16.5181 176.339 18.002C177.753 18.6459 179.861 20.7099 181.022 22.5889C182.834 25.5209 183.043 26.948 182.5 32.667C182.153 36.332 181.644 40.4551 181.369 41.8301C181.094 43.2051 180.62 46.5801 180.315 49.3301C177.178 77.5981 171.466 115.766 169.99 118.33C166.636 124.161 165.347 124.378 111.136 128.251C31.3178 133.954 22.7839 133.265 22.0627 121.065C21.8957 118.243 22.3956 114.488 23.1926 112.581C24.9467 108.382 31.3146 103.088 39.6116 98.9316C44.474 96.4959 45.8622 95.3052 45.8674 93.5664C45.8784 89.0474 48.0806 83.5928 51.3586 79.9648C56.1402 74.6716 86.5825 57.7123 105.247 49.9424C112.417 46.9574 113.264 46.8043 114.699 48.2393C116.804 50.3442 115.971 51.0185 106.008 55.2744C92.392 61.0915 60.9108 77.8877 56.4709 81.7041C54.477 83.4181 50.9201 90.3969 50.883 92.668C50.866 93.676 51.8466 93.8391 54.8596 93.3301C57.7695 92.8391 58.9946 93.0192 59.3616 93.9922C59.6386 94.7289 60.269 102.223 60.7629 110.646C61.2559 119.068 61.8169 126.08 62.01 126.228C62.373 126.503 150.909 120.357 158.822 119.507C166.426 118.691 169.199 112.658 164.487 107.181L162.113 104.42L141.737 105.645C130.531 106.318 120.066 106.859 118.483 106.849L115.604 106.83L116.291 100.58C116.67 97.1431 118.05 86.6801 119.358 77.3301C120.665 67.9801 122.941 51.5551 124.415 40.8301C125.89 30.1051 127.401 20.9949 127.773 20.5869C128.147 20.1778 134.73 19.2218 142.405 18.4629ZM55.6116 120.98C55.0339 121.326 49.6497 121.777 38.3616 122.426C26.6736 123.098 26.4513 123.154 29.8323 124.566C31.7732 125.377 38.2773 126.261 44.5823 126.572L55.8616 127.127V123.979C55.8616 122.247 55.7496 120.897 55.6116 120.98ZM53.47 98.877C52.86 98.903 46.1787 100.204 42.01 102.312C35.209 105.753 27.862 113.523 27.8616 115.756C27.8616 118.09 28.0216 118.094 49.6116 116.215C56.6844 115.599 56.3909 116.188 55.22 104.978C54.8551 101.486 54.0989 98.8513 53.47 98.877ZM165.678 21.9561C158.534 22.0991 132.828 24.5311 132.239 25.1191C131.162 26.1961 121.367 101.827 122.306 101.802C122.891 101.785 131.553 101.147 141.559 100.381C159.438 99.0139 163.094 99.1262 165.636 101.117C166.337 101.666 167.209 101.817 167.572 101.452C168.198 100.826 171.114 80.7058 175.879 44.1338C178.104 27.0613 177.912 24.9985 173.905 22.8535C172.854 22.2905 169.151 21.8871 165.678 21.9561Z" fill="black"/>
<path d="M198.862 34.2041C210.713 32.6331 211.851 32.6395 212.477 34.2705C213.141 36.0207 202.849 119.977 201.826 121.156C201.43 121.611 195.878 122.24 189.486 122.555C178.114 123.115 177.862 123.081 177.862 120.998C177.862 118.554 178.934 118.228 189.803 117.369C193.896 117.045 195.84 116.679 195.956 116.555C196.297 116.182 205.361 43.228 205.362 40.8555C205.362 38.8255 206.461 38.7364 198.612 39.0264C190.927 39.3094 190.362 39.1931 190.362 37.3301C190.362 35.5751 191.404 35.1921 198.862 34.2041Z" fill="black"/>
<path fill-rule="evenodd" clip-rule="evenodd" d="M32.4123 9.78711C34.6284 3.77272 36.7741 4.18411 40.2864 11.3027C43.5284 17.8766 49.4756 23.4295 56.2668 26.2217C61.7108 28.4604 61.9416 31.31 56.8186 33.0635C50.8699 35.0983 42.843 42.7196 39.9963 49.0361C38.5832 52.1695 36.8423 52.9333 36.1262 52.5C35.4114 52.0651 33.5614 50.721 32.0139 47.7451C28.6767 41.3247 23.8402 36.6735 16.8616 33.1719C10.5639 30.0117 10.3925 27.6922 16.3039 25.5947C22.1318 23.5266 30.3049 15.5062 32.4123 9.78711ZM36.1262 16.6992C30.566 20.9839 27.158 22.992 24.0002 30.5C27.8114 35.8071 31.4951 40.5501 36.1262 44C40.1616 42.2663 42.5495 36.6427 49.5002 30.5C44.8602 24.3545 41.9982 21.3431 36.1262 16.6992Z" fill="black"/>
<path fill-rule="evenodd" clip-rule="evenodd" d="M79.5305 0C80.0352 0.00151988 81.6281 2.15439 83.0705 4.78418C84.5149 7.41506 88.0136 10.8657 90.844 12.4512C93.6741 14.0366 95.9947 15.9485 96.0002 16.6992C96.006 17.4489 93.9538 19.1488 91.4407 20.4766C88.9284 21.8048 85.5265 25.2422 83.8811 28.1143C82.2371 30.9862 80.3577 33.3355 79.7053 33.3359C79.053 33.3357 77.1863 31.0066 75.5559 28.1602C73.9254 25.3133 70.2167 21.6734 67.3157 20.0732C64.4166 18.4742 62.0442 16.9113 62.0412 16.6006C62.0412 16.2899 64.5263 14.4947 67.5657 12.6133C70.6037 10.7306 74.3325 7.12251 75.8518 4.5957C77.3723 2.06884 79.0278 0 79.5305 0ZM79.5305 9C76.5032 9 71.0102 16.6853 71.0002 16.6992C71.0002 16.6992 77.0005 24.5802 79.5305 24.7402C82.0535 24.8993 87.9666 16.6476 88.0002 16.6006C88.0002 16.6006 82.0006 9.0005 79.5305 9Z" fill="black"/>
</svg>
