<svg width="202" height="202" viewBox="0 0 202 202" fill="none" xmlns="http://www.w3.org/2000/svg">
    <mask id="path-1-outside-1_56_2" maskUnits="userSpaceOnUse" x="0" y="0" width="202" height="202" fill="black">
        <rect fill="white" width="202" height="202" />
        <path fill-rule="evenodd" clip-rule="evenodd"
            d="M90.6726 1.43663C51.5466 4.49921 18.0524 31.4352 4.9681 70.3578C1.44894 80.8249 1.35162 81.6446 1.34936 100.927C1.3471 119.999 1.47609 121.122 4.78026 130.93L8.21229 141.12L4.47587 164.33C2.42095 177.095 0.860524 188.795 1.00989 190.33C1.34257 193.776 2.31458 194.007 29.5683 197.111C59.678 200.541 95.6832 201.803 126.019 200.492C159.387 199.05 198.499 194.821 199.947 192.498C200.301 191.93 198.829 180.238 196.675 166.516L192.759 141.567L195.733 131.72C201.86 111.428 202.038 90.4157 196.242 71.5273C193.213 61.6569 188.541 52.2427 186.672 52.2427C184.423 52.2427 184.824 55.0551 187.955 61.238C195.085 75.3168 198.246 98.974 195.337 116.494C192.587 133.055 190.844 132.837 188.583 115.646C187.805 109.73 186.749 104.093 186.235 103.119C185.392 101.516 183.98 101.53 171.369 103.277C163.705 104.338 157.052 104.978 156.586 104.698C156.12 104.419 155.734 99.5072 155.731 93.784C155.727 88.0608 155.184 81.4318 154.524 79.0519C153.096 73.9072 147.235 67.0914 141.65 64.082L137.632 61.9173V52.1521C137.632 40.8607 135.855 37.1324 127.757 31.4375C123.714 28.5946 121.67 28.0194 114.026 27.5767C105.753 27.0978 104.944 27.2461 103.76 29.4596C102.504 31.8077 102.665 31.8632 110.761 31.8632C117.124 31.8632 120.204 32.4542 124.031 34.4106C132.348 38.6632 133.374 40.9909 133.72 56.4024C133.885 63.7662 134.069 71.1922 134.129 72.9052C134.3 77.7918 137.632 76.9834 137.632 72.0561C137.632 67.5114 138.808 67.1639 143.319 70.3782C147.482 73.3434 151.211 79.4436 151.211 83.2852C151.211 92.5522 139.99 101.613 122.786 106.235C112.702 108.944 87.7702 108.897 77.74 106.149C60.9273 101.544 49.3604 92.3971 49.3751 83.7177C49.3831 78.8096 57.5722 68.2519 61.4636 68.1342C62.2014 68.1115 62.9652 69.7498 63.161 71.773C63.3873 74.1314 64.1251 75.4527 65.2125 75.4527C66.6179 75.4527 67.0071 72.6154 67.4756 58.9792C67.9271 45.8356 68.4442 41.891 70.0318 39.4715C72.588 35.5779 77.3576 33.1392 84.1469 32.2538C89.5388 31.5507 92.37 30.1989 92.37 28.3285C92.37 26.4558 81.6235 27.3831 76.5281 29.6939C66.1019 34.4231 62.9494 39.9278 62.9494 53.4054V62.2173L57.8958 65.1803C48.0139 70.9748 44.9553 78.6409 45.4418 96.3982C45.5357 99.8231 45.2133 103.153 44.7256 103.798C44.1168 104.602 39.3597 104.461 29.6079 103.349C21.782 102.457 15.1612 101.945 14.8953 102.211C14.6294 102.477 13.4933 108.381 12.3719 115.333C11.2494 122.284 9.85532 128.128 9.27369 128.318C7.66122 128.848 5.36867 118.526 4.57431 107.154C3.2866 88.7514 7.56843 70.0725 16.9016 53.3749C23.3933 41.7586 41.1555 23.9865 52.7653 17.4911C76.7069 4.09389 105.797 1.21359 130.94 9.75146C140.795 13.0971 141.027 13.1243 141.027 10.9323C141.027 8.7823 134.947 6.23034 123.488 3.57195C112.806 1.09358 103.111 0.462945 90.6726 1.43663ZM182.895 4.99851C181.934 7.0659 179.355 9.63711 176.958 10.9176C172.399 13.3518 171.507 15.6604 174.691 16.7801C177.626 17.8127 182.981 23.0061 184.113 25.9192C185.558 29.6384 187.653 29.0339 190.478 24.085C191.919 21.558 194.659 18.9166 196.984 17.8127C199.193 16.7643 201 15.4441 201 14.8803C201 14.3165 199.208 13.0031 197.017 11.9638C193.131 10.1183 188.553 5.01776 188.553 2.53486C188.553 -0.211841 184.494 1.55551 182.895 4.99851ZM147.209 8.93628C144.91 14.4501 139.693 19.7782 134.139 22.2837C128.728 24.7259 128.499 26.7581 133.451 28.3942C137.949 29.8796 145.78 37.8083 147.779 42.9021C149.693 47.7784 151.71 47.5486 153.844 42.2137C156.059 36.675 160.908 31.8055 166.898 29.1029C169.474 27.9413 171.579 26.5611 171.579 26.0358C171.579 25.5116 169.294 24.0069 166.501 22.6936C160.816 20.0193 155.117 14.1172 152.751 8.45284C150.72 3.5878 149.389 3.70442 147.209 8.93628ZM189.714 12.0804L192.4 14.9426L189.499 17.8444L186.599 20.7473L183.539 17.6859L180.478 14.6233L183.015 11.9219C186.17 8.56266 186.415 8.56832 189.714 12.0804ZM156.18 20.282C159.048 22.9404 161.395 25.3237 161.395 25.5761C161.395 25.8286 158.991 28.5153 156.052 31.5473L150.71 37.0588L144.863 31.3469L139.016 25.6361L144.266 20.3862C147.152 17.4991 149.84 15.2064 150.239 15.2913C150.638 15.3762 153.311 17.6225 156.18 20.282ZM170.982 33.0463C170.052 34.5533 179.252 46.5817 181.336 46.5817C184.047 46.5817 183.042 43.5746 178.343 37.6261C173.735 31.793 172.306 30.9042 170.982 33.0463ZM82.5412 42.1492C80.5576 42.7345 78.6521 44.1045 78.3058 45.1948C77.7864 46.8331 77.2025 69.7407 77.5567 74.6035C77.6133 75.3825 78.3997 76.0188 79.305 76.0188C80.5497 76.0188 81.0329 74.1552 81.2852 68.3832C81.6134 60.9153 81.6948 60.733 85.0148 60.0265C89.4087 59.0913 111.165 59.0902 115.567 60.0243C118.838 60.7194 118.982 61.0138 119.527 68.0991C119.953 73.6287 120.514 75.4527 121.791 75.4527C123.198 75.4527 123.542 72.8962 123.804 60.4986C124.109 46.0009 124.04 45.4948 121.541 43.9165C120.122 43.021 117.815 41.9465 116.416 41.5287C112.623 40.3954 112.887 45.1325 116.699 46.5817C118.921 47.4275 119.527 48.4521 119.527 51.3652V55.0732L100.574 54.9543L81.6201 54.8354L81.3271 52.1238C80.7534 46.8195 82.3681 46.0552 95.4399 45.4495C105.285 44.9933 107.646 44.5551 107.646 43.1851C107.646 41.8084 105.608 41.4484 96.8962 41.2864C90.9838 41.1766 84.5237 41.565 82.5412 42.1492ZM54.328 99.6465C57.2768 102.906 70.8567 108.731 80.0948 110.699C86.3195 112.024 92.5341 112.335 104.817 111.933C119.68 111.448 122.128 111.064 130.811 107.848C136.085 105.895 142.292 102.776 144.607 100.915C146.921 99.0532 149.354 97.5304 150.013 97.5304C150.788 97.5304 151.21 102.226 151.207 110.834C151.203 122.051 150.855 124.708 148.983 127.778C146.007 132.662 136.563 138.695 126.883 141.897C119.892 144.209 116.769 144.516 100.291 144.516C85.0148 144.516 80.4886 144.132 75.3966 142.397C65.4467 139.008 56.1883 133.646 52.943 129.394C50.1265 125.703 49.9126 124.573 49.5607 111.493C49.2518 99.9805 49.4691 97.5304 50.7998 97.5304C51.6881 97.5304 53.2756 98.4826 54.328 99.6465ZM33.5072 107.882C43.8101 109.054 44.9428 109.415 45.5165 111.704C46.4919 115.591 39.6969 129.037 34.3661 133.771C28.3982 139.069 29.136 141.798 37.6703 145.986C44.1202 149.151 44.5207 150.104 42.0698 156.437C40.4098 160.725 48.9644 164.33 60.8028 164.33C64.3355 164.33 66.1969 165.272 70.8703 169.425C77.456 175.277 79.9952 175.664 91.9966 172.648C98.4352 171.03 100.383 170.974 106.374 172.233C110.185 173.033 115.684 173.922 118.592 174.207C123.532 174.693 124.217 174.415 129.001 170.003C133.896 165.489 134.599 165.221 144.937 163.909C158.117 162.236 160.164 160.794 158.243 154.532C156.741 149.636 157.493 148.269 162.847 146.15C171.739 142.631 172.88 137.92 166.032 132.996C159.38 128.212 152.844 111.907 156.637 109.561C158.198 108.596 181.789 106.237 182.525 106.972C183.316 107.763 183.28 107.556 190.29 152.442C193.111 170.5 195.676 186.125 195.992 187.162C196.307 188.199 196.103 189.334 195.536 189.684C193.782 190.769 157.246 194.804 138.218 196.013C114.999 197.49 85.4618 197.475 61.8178 195.976C39.5984 194.566 7.36022 190.667 5.89824 189.212C4.92849 188.246 5.99443 180.672 14.9258 125.057C16.4444 115.6 17.6869 107.575 17.6869 107.225C17.6869 106.303 20.7319 106.428 33.5072 107.882ZM164.157 113.49C163.735 114.171 165.653 117.102 168.418 120C175.156 127.064 177.146 130.515 177.977 136.582C179.403 146.991 172.333 157.811 158.317 166.668C152.789 170.161 151.278 171.643 152.25 172.615C155.517 175.884 174.134 161.354 179.006 151.734C182.627 144.584 182.792 134.338 179.4 127.325C176.989 122.345 168.038 112.249 166.03 112.249C165.421 112.249 164.578 112.807 164.157 113.49ZM46.3708 133.754C47.3168 138.49 54.9356 146.359 62.0509 149.95C82.505 160.271 115.304 160.614 137.219 150.736C145.321 147.084 153.256 139.663 154.221 134.834C155.179 130.048 156.19 129.872 160.431 133.747C162.484 135.622 164.558 137.157 165.042 137.157C165.526 137.157 165.922 137.844 165.922 138.683C165.922 139.523 163.899 141.122 161.429 142.237C154.513 145.358 153.072 147.507 153.953 153.385C154.635 157.937 154.471 158.441 152.107 159.075C150.681 159.457 147.477 159.79 144.988 159.812C136.961 159.888 132.07 161.69 126.872 166.483C124.105 169.035 121.448 171.126 120.967 171.131C120.487 171.135 115.441 170.067 109.756 168.757L99.4196 166.376L90.2675 168.749C85.2332 170.054 80.5802 171.123 79.9273 171.123C79.2744 171.123 76.4772 169.035 73.7094 166.483C68.3877 161.575 63.5944 159.874 54.9617 159.828C47.8736 159.791 45.4599 157.909 47.069 153.674C48.9067 148.838 47.5545 146.476 41.083 143.225C37.8615 141.606 34.9715 140.047 34.6614 139.758C34.0764 139.216 43.7366 130.458 44.9858 130.398C45.3751 130.379 45.9974 131.889 46.3708 133.754ZM147.252 138.446C146.911 139.332 144.179 141.666 141.179 143.631C121.997 156.196 86.8978 157.519 64.4317 146.524C57.8041 143.28 51.1053 137.157 54.1843 137.157C55.197 137.157 56.3014 137.602 56.6375 138.147C57.7068 139.877 69.3325 144.915 76.6118 146.802C86.3501 149.327 104.738 150.175 114.975 148.572C125.216 146.968 136.599 143.12 142.725 139.193C147.607 136.062 148.204 135.964 147.252 138.446ZM19.2247 138.865C18.8648 139.803 18.9237 142.46 19.357 144.769C23.253 165.549 55.4064 182.903 91.8042 183.873C100.223 184.097 101.988 183.849 101.988 182.445C101.988 181.196 100.49 180.678 96.3305 180.487C76.5745 179.581 56.8468 174.696 44.0953 167.555C31.8687 160.708 22.2131 148.205 22.2131 139.22C22.2131 136.728 20.1378 136.481 19.2247 138.865ZM180.533 163.883C176.626 168.593 153.314 181.313 148.588 181.313C145.885 181.313 142.614 184.444 143.925 185.778C146.591 188.489 171.971 176.97 180.812 169.035C185.992 164.388 186.898 162.065 183.532 162.065C182.712 162.065 181.362 162.883 180.533 163.883ZM33.5287 176.149C33.5287 178.272 42.2395 182.653 52.857 185.87C58.4639 187.568 59.669 187.634 60.7722 186.305C61.768 185.104 61.7114 184.614 60.5312 184.215C59.6825 183.928 54.1515 181.854 48.2391 179.604C33.221 173.891 33.5287 173.964 33.5287 176.149Z" />
    </mask>
    <path fill-rule="evenodd" clip-rule="evenodd"
        d="M90.6726 1.43663C51.5466 4.49921 18.0524 31.4352 4.9681 70.3578C1.44894 80.8249 1.35162 81.6446 1.34936 100.927C1.3471 119.999 1.47609 121.122 4.78026 130.93L8.21229 141.12L4.47587 164.33C2.42095 177.095 0.860524 188.795 1.00989 190.33C1.34257 193.776 2.31458 194.007 29.5683 197.111C59.678 200.541 95.6832 201.803 126.019 200.492C159.387 199.05 198.499 194.821 199.947 192.498C200.301 191.93 198.829 180.238 196.675 166.516L192.759 141.567L195.733 131.72C201.86 111.428 202.038 90.4157 196.242 71.5273C193.213 61.6569 188.541 52.2427 186.672 52.2427C184.423 52.2427 184.824 55.0551 187.955 61.238C195.085 75.3168 198.246 98.974 195.337 116.494C192.587 133.055 190.844 132.837 188.583 115.646C187.805 109.73 186.749 104.093 186.235 103.119C185.392 101.516 183.98 101.53 171.369 103.277C163.705 104.338 157.052 104.978 156.586 104.698C156.12 104.419 155.734 99.5072 155.731 93.784C155.727 88.0608 155.184 81.4318 154.524 79.0519C153.096 73.9072 147.235 67.0914 141.65 64.082L137.632 61.9173V52.1521C137.632 40.8607 135.855 37.1324 127.757 31.4375C123.714 28.5946 121.67 28.0194 114.026 27.5767C105.753 27.0978 104.944 27.2461 103.76 29.4596C102.504 31.8077 102.665 31.8632 110.761 31.8632C117.124 31.8632 120.204 32.4542 124.031 34.4106C132.348 38.6632 133.374 40.9909 133.72 56.4024C133.885 63.7662 134.069 71.1922 134.129 72.9052C134.3 77.7918 137.632 76.9834 137.632 72.0561C137.632 67.5114 138.808 67.1639 143.319 70.3782C147.482 73.3434 151.211 79.4436 151.211 83.2852C151.211 92.5522 139.99 101.613 122.786 106.235C112.702 108.944 87.7702 108.897 77.74 106.149C60.9273 101.544 49.3604 92.3971 49.3751 83.7177C49.3831 78.8096 57.5722 68.2519 61.4636 68.1342C62.2014 68.1115 62.9652 69.7498 63.161 71.773C63.3873 74.1314 64.1251 75.4527 65.2125 75.4527C66.6179 75.4527 67.0071 72.6154 67.4756 58.9792C67.9271 45.8356 68.4442 41.891 70.0318 39.4715C72.588 35.5779 77.3576 33.1392 84.1469 32.2538C89.5388 31.5507 92.37 30.1989 92.37 28.3285C92.37 26.4558 81.6235 27.3831 76.5281 29.6939C66.1019 34.4231 62.9494 39.9278 62.9494 53.4054V62.2173L57.8958 65.1803C48.0139 70.9748 44.9553 78.6409 45.4418 96.3982C45.5357 99.8231 45.2133 103.153 44.7256 103.798C44.1168 104.602 39.3597 104.461 29.6079 103.349C21.782 102.457 15.1612 101.945 14.8953 102.211C14.6294 102.477 13.4933 108.381 12.3719 115.333C11.2494 122.284 9.85532 128.128 9.27369 128.318C7.66122 128.848 5.36867 118.526 4.57431 107.154C3.2866 88.7514 7.56843 70.0725 16.9016 53.3749C23.3933 41.7586 41.1555 23.9865 52.7653 17.4911C76.7069 4.09389 105.797 1.21359 130.94 9.75146C140.795 13.0971 141.027 13.1243 141.027 10.9323C141.027 8.7823 134.947 6.23034 123.488 3.57195C112.806 1.09358 103.111 0.462945 90.6726 1.43663ZM182.895 4.99851C181.934 7.0659 179.355 9.63711 176.958 10.9176C172.399 13.3518 171.507 15.6604 174.691 16.7801C177.626 17.8127 182.981 23.0061 184.113 25.9192C185.558 29.6384 187.653 29.0339 190.478 24.085C191.919 21.558 194.659 18.9166 196.984 17.8127C199.193 16.7643 201 15.4441 201 14.8803C201 14.3165 199.208 13.0031 197.017 11.9638C193.131 10.1183 188.553 5.01776 188.553 2.53486C188.553 -0.211841 184.494 1.55551 182.895 4.99851ZM147.209 8.93628C144.91 14.4501 139.693 19.7782 134.139 22.2837C128.728 24.7259 128.499 26.7581 133.451 28.3942C137.949 29.8796 145.78 37.8083 147.779 42.9021C149.693 47.7784 151.71 47.5486 153.844 42.2137C156.059 36.675 160.908 31.8055 166.898 29.1029C169.474 27.9413 171.579 26.5611 171.579 26.0358C171.579 25.5116 169.294 24.0069 166.501 22.6936C160.816 20.0193 155.117 14.1172 152.751 8.45284C150.72 3.5878 149.389 3.70442 147.209 8.93628ZM189.714 12.0804L192.4 14.9426L189.499 17.8444L186.599 20.7473L183.539 17.6859L180.478 14.6233L183.015 11.9219C186.17 8.56266 186.415 8.56832 189.714 12.0804ZM156.18 20.282C159.048 22.9404 161.395 25.3237 161.395 25.5761C161.395 25.8286 158.991 28.5153 156.052 31.5473L150.71 37.0588L144.863 31.3469L139.016 25.6361L144.266 20.3862C147.152 17.4991 149.84 15.2064 150.239 15.2913C150.638 15.3762 153.311 17.6225 156.18 20.282ZM170.982 33.0463C170.052 34.5533 179.252 46.5817 181.336 46.5817C184.047 46.5817 183.042 43.5746 178.343 37.6261C173.735 31.793 172.306 30.9042 170.982 33.0463ZM82.5412 42.1492C80.5576 42.7345 78.6521 44.1045 78.3058 45.1948C77.7864 46.8331 77.2025 69.7407 77.5567 74.6035C77.6133 75.3825 78.3997 76.0188 79.305 76.0188C80.5497 76.0188 81.0329 74.1552 81.2852 68.3832C81.6134 60.9153 81.6948 60.733 85.0148 60.0265C89.4087 59.0913 111.165 59.0902 115.567 60.0243C118.838 60.7194 118.982 61.0138 119.527 68.0991C119.953 73.6287 120.514 75.4527 121.791 75.4527C123.198 75.4527 123.542 72.8962 123.804 60.4986C124.109 46.0009 124.04 45.4948 121.541 43.9165C120.122 43.021 117.815 41.9465 116.416 41.5287C112.623 40.3954 112.887 45.1325 116.699 46.5817C118.921 47.4275 119.527 48.4521 119.527 51.3652V55.0732L100.574 54.9543L81.6201 54.8354L81.3271 52.1238C80.7534 46.8195 82.3681 46.0552 95.4399 45.4495C105.285 44.9933 107.646 44.5551 107.646 43.1851C107.646 41.8084 105.608 41.4484 96.8962 41.2864C90.9838 41.1766 84.5237 41.565 82.5412 42.1492ZM54.328 99.6465C57.2768 102.906 70.8567 108.731 80.0948 110.699C86.3195 112.024 92.5341 112.335 104.817 111.933C119.68 111.448 122.128 111.064 130.811 107.848C136.085 105.895 142.292 102.776 144.607 100.915C146.921 99.0532 149.354 97.5304 150.013 97.5304C150.788 97.5304 151.21 102.226 151.207 110.834C151.203 122.051 150.855 124.708 148.983 127.778C146.007 132.662 136.563 138.695 126.883 141.897C119.892 144.209 116.769 144.516 100.291 144.516C85.0148 144.516 80.4886 144.132 75.3966 142.397C65.4467 139.008 56.1883 133.646 52.943 129.394C50.1265 125.703 49.9126 124.573 49.5607 111.493C49.2518 99.9805 49.4691 97.5304 50.7998 97.5304C51.6881 97.5304 53.2756 98.4826 54.328 99.6465ZM33.5072 107.882C43.8101 109.054 44.9428 109.415 45.5165 111.704C46.4919 115.591 39.6969 129.037 34.3661 133.771C28.3982 139.069 29.136 141.798 37.6703 145.986C44.1202 149.151 44.5207 150.104 42.0698 156.437C40.4098 160.725 48.9644 164.33 60.8028 164.33C64.3355 164.33 66.1969 165.272 70.8703 169.425C77.456 175.277 79.9952 175.664 91.9966 172.648C98.4352 171.03 100.383 170.974 106.374 172.233C110.185 173.033 115.684 173.922 118.592 174.207C123.532 174.693 124.217 174.415 129.001 170.003C133.896 165.489 134.599 165.221 144.937 163.909C158.117 162.236 160.164 160.794 158.243 154.532C156.741 149.636 157.493 148.269 162.847 146.15C171.739 142.631 172.88 137.92 166.032 132.996C159.38 128.212 152.844 111.907 156.637 109.561C158.198 108.596 181.789 106.237 182.525 106.972C183.316 107.763 183.28 107.556 190.29 152.442C193.111 170.5 195.676 186.125 195.992 187.162C196.307 188.199 196.103 189.334 195.536 189.684C193.782 190.769 157.246 194.804 138.218 196.013C114.999 197.49 85.4618 197.475 61.8178 195.976C39.5984 194.566 7.36022 190.667 5.89824 189.212C4.92849 188.246 5.99443 180.672 14.9258 125.057C16.4444 115.6 17.6869 107.575 17.6869 107.225C17.6869 106.303 20.7319 106.428 33.5072 107.882ZM164.157 113.49C163.735 114.171 165.653 117.102 168.418 120C175.156 127.064 177.146 130.515 177.977 136.582C179.403 146.991 172.333 157.811 158.317 166.668C152.789 170.161 151.278 171.643 152.25 172.615C155.517 175.884 174.134 161.354 179.006 151.734C182.627 144.584 182.792 134.338 179.4 127.325C176.989 122.345 168.038 112.249 166.03 112.249C165.421 112.249 164.578 112.807 164.157 113.49ZM46.3708 133.754C47.3168 138.49 54.9356 146.359 62.0509 149.95C82.505 160.271 115.304 160.614 137.219 150.736C145.321 147.084 153.256 139.663 154.221 134.834C155.179 130.048 156.19 129.872 160.431 133.747C162.484 135.622 164.558 137.157 165.042 137.157C165.526 137.157 165.922 137.844 165.922 138.683C165.922 139.523 163.899 141.122 161.429 142.237C154.513 145.358 153.072 147.507 153.953 153.385C154.635 157.937 154.471 158.441 152.107 159.075C150.681 159.457 147.477 159.79 144.988 159.812C136.961 159.888 132.07 161.69 126.872 166.483C124.105 169.035 121.448 171.126 120.967 171.131C120.487 171.135 115.441 170.067 109.756 168.757L99.4196 166.376L90.2675 168.749C85.2332 170.054 80.5802 171.123 79.9273 171.123C79.2744 171.123 76.4772 169.035 73.7094 166.483C68.3877 161.575 63.5944 159.874 54.9617 159.828C47.8736 159.791 45.4599 157.909 47.069 153.674C48.9067 148.838 47.5545 146.476 41.083 143.225C37.8615 141.606 34.9715 140.047 34.6614 139.758C34.0764 139.216 43.7366 130.458 44.9858 130.398C45.3751 130.379 45.9974 131.889 46.3708 133.754ZM147.252 138.446C146.911 139.332 144.179 141.666 141.179 143.631C121.997 156.196 86.8978 157.519 64.4317 146.524C57.8041 143.28 51.1053 137.157 54.1843 137.157C55.197 137.157 56.3014 137.602 56.6375 138.147C57.7068 139.877 69.3325 144.915 76.6118 146.802C86.3501 149.327 104.738 150.175 114.975 148.572C125.216 146.968 136.599 143.12 142.725 139.193C147.607 136.062 148.204 135.964 147.252 138.446ZM19.2247 138.865C18.8648 139.803 18.9237 142.46 19.357 144.769C23.253 165.549 55.4064 182.903 91.8042 183.873C100.223 184.097 101.988 183.849 101.988 182.445C101.988 181.196 100.49 180.678 96.3305 180.487C76.5745 179.581 56.8468 174.696 44.0953 167.555C31.8687 160.708 22.2131 148.205 22.2131 139.22C22.2131 136.728 20.1378 136.481 19.2247 138.865ZM180.533 163.883C176.626 168.593 153.314 181.313 148.588 181.313C145.885 181.313 142.614 184.444 143.925 185.778C146.591 188.489 171.971 176.97 180.812 169.035C185.992 164.388 186.898 162.065 183.532 162.065C182.712 162.065 181.362 162.883 180.533 163.883ZM33.5287 176.149C33.5287 178.272 42.2395 182.653 52.857 185.87C58.4639 187.568 59.669 187.634 60.7722 186.305C61.768 185.104 61.7114 184.614 60.5312 184.215C59.6825 183.928 54.1515 181.854 48.2391 179.604C33.221 173.891 33.5287 173.964 33.5287 176.149Z"
        fill="black" />
    <path fill-rule="evenodd" clip-rule="evenodd"
        d="M90.6726 1.43663C51.5466 4.49921 18.0524 31.4352 4.9681 70.3578C1.44894 80.8249 1.35162 81.6446 1.34936 100.927C1.3471 119.999 1.47609 121.122 4.78026 130.93L8.21229 141.12L4.47587 164.33C2.42095 177.095 0.860524 188.795 1.00989 190.33C1.34257 193.776 2.31458 194.007 29.5683 197.111C59.678 200.541 95.6832 201.803 126.019 200.492C159.387 199.05 198.499 194.821 199.947 192.498C200.301 191.93 198.829 180.238 196.675 166.516L192.759 141.567L195.733 131.72C201.86 111.428 202.038 90.4157 196.242 71.5273C193.213 61.6569 188.541 52.2427 186.672 52.2427C184.423 52.2427 184.824 55.0551 187.955 61.238C195.085 75.3168 198.246 98.974 195.337 116.494C192.587 133.055 190.844 132.837 188.583 115.646C187.805 109.73 186.749 104.093 186.235 103.119C185.392 101.516 183.98 101.53 171.369 103.277C163.705 104.338 157.052 104.978 156.586 104.698C156.12 104.419 155.734 99.5072 155.731 93.784C155.727 88.0608 155.184 81.4318 154.524 79.0519C153.096 73.9072 147.235 67.0914 141.65 64.082L137.632 61.9173V52.1521C137.632 40.8607 135.855 37.1324 127.757 31.4375C123.714 28.5946 121.67 28.0194 114.026 27.5767C105.753 27.0978 104.944 27.2461 103.76 29.4596C102.504 31.8077 102.665 31.8632 110.761 31.8632C117.124 31.8632 120.204 32.4542 124.031 34.4106C132.348 38.6632 133.374 40.9909 133.72 56.4024C133.885 63.7662 134.069 71.1922 134.129 72.9052C134.3 77.7918 137.632 76.9834 137.632 72.0561C137.632 67.5114 138.808 67.1639 143.319 70.3782C147.482 73.3434 151.211 79.4436 151.211 83.2852C151.211 92.5522 139.99 101.613 122.786 106.235C112.702 108.944 87.7702 108.897 77.74 106.149C60.9273 101.544 49.3604 92.3971 49.3751 83.7177C49.3831 78.8096 57.5722 68.2519 61.4636 68.1342C62.2014 68.1115 62.9652 69.7498 63.161 71.773C63.3873 74.1314 64.1251 75.4527 65.2125 75.4527C66.6179 75.4527 67.0071 72.6154 67.4756 58.9792C67.9271 45.8356 68.4442 41.891 70.0318 39.4715C72.588 35.5779 77.3576 33.1392 84.1469 32.2538C89.5388 31.5507 92.37 30.1989 92.37 28.3285C92.37 26.4558 81.6235 27.3831 76.5281 29.6939C66.1019 34.4231 62.9494 39.9278 62.9494 53.4054V62.2173L57.8958 65.1803C48.0139 70.9748 44.9553 78.6409 45.4418 96.3982C45.5357 99.8231 45.2133 103.153 44.7256 103.798C44.1168 104.602 39.3597 104.461 29.6079 103.349C21.782 102.457 15.1612 101.945 14.8953 102.211C14.6294 102.477 13.4933 108.381 12.3719 115.333C11.2494 122.284 9.85532 128.128 9.27369 128.318C7.66122 128.848 5.36867 118.526 4.57431 107.154C3.2866 88.7514 7.56843 70.0725 16.9016 53.3749C23.3933 41.7586 41.1555 23.9865 52.7653 17.4911C76.7069 4.09389 105.797 1.21359 130.94 9.75146C140.795 13.0971 141.027 13.1243 141.027 10.9323C141.027 8.7823 134.947 6.23034 123.488 3.57195C112.806 1.09358 103.111 0.462945 90.6726 1.43663ZM182.895 4.99851C181.934 7.0659 179.355 9.63711 176.958 10.9176C172.399 13.3518 171.507 15.6604 174.691 16.7801C177.626 17.8127 182.981 23.0061 184.113 25.9192C185.558 29.6384 187.653 29.0339 190.478 24.085C191.919 21.558 194.659 18.9166 196.984 17.8127C199.193 16.7643 201 15.4441 201 14.8803C201 14.3165 199.208 13.0031 197.017 11.9638C193.131 10.1183 188.553 5.01776 188.553 2.53486C188.553 -0.211841 184.494 1.55551 182.895 4.99851ZM147.209 8.93628C144.91 14.4501 139.693 19.7782 134.139 22.2837C128.728 24.7259 128.499 26.7581 133.451 28.3942C137.949 29.8796 145.78 37.8083 147.779 42.9021C149.693 47.7784 151.71 47.5486 153.844 42.2137C156.059 36.675 160.908 31.8055 166.898 29.1029C169.474 27.9413 171.579 26.5611 171.579 26.0358C171.579 25.5116 169.294 24.0069 166.501 22.6936C160.816 20.0193 155.117 14.1172 152.751 8.45284C150.72 3.5878 149.389 3.70442 147.209 8.93628ZM189.714 12.0804L192.4 14.9426L189.499 17.8444L186.599 20.7473L183.539 17.6859L180.478 14.6233L183.015 11.9219C186.17 8.56266 186.415 8.56832 189.714 12.0804ZM156.18 20.282C159.048 22.9404 161.395 25.3237 161.395 25.5761C161.395 25.8286 158.991 28.5153 156.052 31.5473L150.71 37.0588L144.863 31.3469L139.016 25.6361L144.266 20.3862C147.152 17.4991 149.84 15.2064 150.239 15.2913C150.638 15.3762 153.311 17.6225 156.18 20.282ZM170.982 33.0463C170.052 34.5533 179.252 46.5817 181.336 46.5817C184.047 46.5817 183.042 43.5746 178.343 37.6261C173.735 31.793 172.306 30.9042 170.982 33.0463ZM82.5412 42.1492C80.5576 42.7345 78.6521 44.1045 78.3058 45.1948C77.7864 46.8331 77.2025 69.7407 77.5567 74.6035C77.6133 75.3825 78.3997 76.0188 79.305 76.0188C80.5497 76.0188 81.0329 74.1552 81.2852 68.3832C81.6134 60.9153 81.6948 60.733 85.0148 60.0265C89.4087 59.0913 111.165 59.0902 115.567 60.0243C118.838 60.7194 118.982 61.0138 119.527 68.0991C119.953 73.6287 120.514 75.4527 121.791 75.4527C123.198 75.4527 123.542 72.8962 123.804 60.4986C124.109 46.0009 124.04 45.4948 121.541 43.9165C120.122 43.021 117.815 41.9465 116.416 41.5287C112.623 40.3954 112.887 45.1325 116.699 46.5817C118.921 47.4275 119.527 48.4521 119.527 51.3652V55.0732L100.574 54.9543L81.6201 54.8354L81.3271 52.1238C80.7534 46.8195 82.3681 46.0552 95.4399 45.4495C105.285 44.9933 107.646 44.5551 107.646 43.1851C107.646 41.8084 105.608 41.4484 96.8962 41.2864C90.9838 41.1766 84.5237 41.565 82.5412 42.1492ZM54.328 99.6465C57.2768 102.906 70.8567 108.731 80.0948 110.699C86.3195 112.024 92.5341 112.335 104.817 111.933C119.68 111.448 122.128 111.064 130.811 107.848C136.085 105.895 142.292 102.776 144.607 100.915C146.921 99.0532 149.354 97.5304 150.013 97.5304C150.788 97.5304 151.21 102.226 151.207 110.834C151.203 122.051 150.855 124.708 148.983 127.778C146.007 132.662 136.563 138.695 126.883 141.897C119.892 144.209 116.769 144.516 100.291 144.516C85.0148 144.516 80.4886 144.132 75.3966 142.397C65.4467 139.008 56.1883 133.646 52.943 129.394C50.1265 125.703 49.9126 124.573 49.5607 111.493C49.2518 99.9805 49.4691 97.5304 50.7998 97.5304C51.6881 97.5304 53.2756 98.4826 54.328 99.6465ZM33.5072 107.882C43.8101 109.054 44.9428 109.415 45.5165 111.704C46.4919 115.591 39.6969 129.037 34.3661 133.771C28.3982 139.069 29.136 141.798 37.6703 145.986C44.1202 149.151 44.5207 150.104 42.0698 156.437C40.4098 160.725 48.9644 164.33 60.8028 164.33C64.3355 164.33 66.1969 165.272 70.8703 169.425C77.456 175.277 79.9952 175.664 91.9966 172.648C98.4352 171.03 100.383 170.974 106.374 172.233C110.185 173.033 115.684 173.922 118.592 174.207C123.532 174.693 124.217 174.415 129.001 170.003C133.896 165.489 134.599 165.221 144.937 163.909C158.117 162.236 160.164 160.794 158.243 154.532C156.741 149.636 157.493 148.269 162.847 146.15C171.739 142.631 172.88 137.92 166.032 132.996C159.38 128.212 152.844 111.907 156.637 109.561C158.198 108.596 181.789 106.237 182.525 106.972C183.316 107.763 183.28 107.556 190.29 152.442C193.111 170.5 195.676 186.125 195.992 187.162C196.307 188.199 196.103 189.334 195.536 189.684C193.782 190.769 157.246 194.804 138.218 196.013C114.999 197.49 85.4618 197.475 61.8178 195.976C39.5984 194.566 7.36022 190.667 5.89824 189.212C4.92849 188.246 5.99443 180.672 14.9258 125.057C16.4444 115.6 17.6869 107.575 17.6869 107.225C17.6869 106.303 20.7319 106.428 33.5072 107.882ZM164.157 113.49C163.735 114.171 165.653 117.102 168.418 120C175.156 127.064 177.146 130.515 177.977 136.582C179.403 146.991 172.333 157.811 158.317 166.668C152.789 170.161 151.278 171.643 152.25 172.615C155.517 175.884 174.134 161.354 179.006 151.734C182.627 144.584 182.792 134.338 179.4 127.325C176.989 122.345 168.038 112.249 166.03 112.249C165.421 112.249 164.578 112.807 164.157 113.49ZM46.3708 133.754C47.3168 138.49 54.9356 146.359 62.0509 149.95C82.505 160.271 115.304 160.614 137.219 150.736C145.321 147.084 153.256 139.663 154.221 134.834C155.179 130.048 156.19 129.872 160.431 133.747C162.484 135.622 164.558 137.157 165.042 137.157C165.526 137.157 165.922 137.844 165.922 138.683C165.922 139.523 163.899 141.122 161.429 142.237C154.513 145.358 153.072 147.507 153.953 153.385C154.635 157.937 154.471 158.441 152.107 159.075C150.681 159.457 147.477 159.79 144.988 159.812C136.961 159.888 132.07 161.69 126.872 166.483C124.105 169.035 121.448 171.126 120.967 171.131C120.487 171.135 115.441 170.067 109.756 168.757L99.4196 166.376L90.2675 168.749C85.2332 170.054 80.5802 171.123 79.9273 171.123C79.2744 171.123 76.4772 169.035 73.7094 166.483C68.3877 161.575 63.5944 159.874 54.9617 159.828C47.8736 159.791 45.4599 157.909 47.069 153.674C48.9067 148.838 47.5545 146.476 41.083 143.225C37.8615 141.606 34.9715 140.047 34.6614 139.758C34.0764 139.216 43.7366 130.458 44.9858 130.398C45.3751 130.379 45.9974 131.889 46.3708 133.754ZM147.252 138.446C146.911 139.332 144.179 141.666 141.179 143.631C121.997 156.196 86.8978 157.519 64.4317 146.524C57.8041 143.28 51.1053 137.157 54.1843 137.157C55.197 137.157 56.3014 137.602 56.6375 138.147C57.7068 139.877 69.3325 144.915 76.6118 146.802C86.3501 149.327 104.738 150.175 114.975 148.572C125.216 146.968 136.599 143.12 142.725 139.193C147.607 136.062 148.204 135.964 147.252 138.446ZM19.2247 138.865C18.8648 139.803 18.9237 142.46 19.357 144.769C23.253 165.549 55.4064 182.903 91.8042 183.873C100.223 184.097 101.988 183.849 101.988 182.445C101.988 181.196 100.49 180.678 96.3305 180.487C76.5745 179.581 56.8468 174.696 44.0953 167.555C31.8687 160.708 22.2131 148.205 22.2131 139.22C22.2131 136.728 20.1378 136.481 19.2247 138.865ZM180.533 163.883C176.626 168.593 153.314 181.313 148.588 181.313C145.885 181.313 142.614 184.444 143.925 185.778C146.591 188.489 171.971 176.97 180.812 169.035C185.992 164.388 186.898 162.065 183.532 162.065C182.712 162.065 181.362 162.883 180.533 163.883ZM33.5287 176.149C33.5287 178.272 42.2395 182.653 52.857 185.87C58.4639 187.568 59.669 187.634 60.7722 186.305C61.768 185.104 61.7114 184.614 60.5312 184.215C59.6825 183.928 54.1515 181.854 48.2391 179.604C33.221 173.891 33.5287 173.964 33.5287 176.149Z"
        stroke="black" stroke-width="2" mask="url(#path-1-outside-1_56_2)" />
</svg>