<svg xmlns="http://www.w3.org/2000/svg" fill="none" viewBox="0 0 1217 1375">
  <path fill="color(display-p3 .1098 .1098 .1098)"
    d="m658.9 128 .5.4.5-.3v.5c162 75.7 334.8 138 525.3 178.5v368c0 471.4-500 688.2-525.2 698.8v.4l-.5-.2-.6.2v-.4c-25.2-10.7-525.3-227.4-525.3-698.8V307a2422 2422 0 0 0 525.3-178.4z" />
  <path fill="color(display-p3 .9216 .698 .2784)"
    d="M659.8 205.2h-.7a2488 2488 0 0 1-455.6 157.5v312.2c0 372.7 354 572.5 456 622.3 102-49.7 456-249.5 456-622.2V362.7A2488 2488 0 0 1 659.8 205m-1 36.8.7.3.6-.3a2516 2516 0 0 0 422 147v286a532 532 0 0 1-53.6 232.9 665 665 0 0 1-126.6 175.8 921 921 0 0 1-146.6 119.9 998 998 0 0 1-95.8 56.3q-49.5-25.5-95.9-56.3-79.5-52.3-146.6-120a665 665 0 0 1-126.6-175.7 532 532 0 0 1-53.6-233v-286c142-35.3 280.4-83.5 422-147" />
  <path fill="color(display-p3 .8078 .2275 .1961)"
    d="m53.4 0 498.5 528.1 35.6 19.2-52.8-7.3L0 106.1c116.7 197 263 375.3 432.5 538.7l-174-98.1c69.2 80.2 136 149.6 198.4 200.4l23.1 8 300.3-249.6c-9.2-52.3-38.3-115.1-75.1-182l17.8 78.1A2566 2566 0 0 0 287.8 68.2l67.3 88S541.3 351.4 580.4 390c-29-23.7-140-107.7-252.9-191.7C194.3 99.1 58.8 0 53.5 0z" />
  <path fill="color(display-p3 .9216 .698 .2784)"
    d="M318.5 428.2s93 139.5 136.5 181c43.5 41.6 50.4 0 50.4 0M398.5 299.7s134.6 171 209.8 233.4l39.5-13.9S500.5 397.7 398.6 299.7" />
  <path fill="color(display-p3 .1098 .1098 .1098)"
    d="M483.1 758.6a2697 2697 0 0 1-96.9-119.2 444 444 0 0 0 97 21.3 803 803 0 0 1-42.1-129.6q36.3 20 72.7 23.2l15.8-10.8 29.7-9.4 28.2 13.8 6-26.7s38.5-28.2 73.6-30.7c0 0-51-101.3-63.8-139 0 0 106.8 120.8 137.5 149.4l34.1 6 58.4 6.4v28.2l35 38.6-182 178.5zm330.4 191.3h-42.3c-11 0-18.6 11.2-14.4 21.4l60 145.6c6.9 16.6 32 10.1 29.8-7.8L829 963.6c-1-7.8-7.6-13.7-15.4-13.7" />
  <path fill="color(display-p3 .1098 .1098 .1098)" d="m926.5 926.7-133-52.6 15.5 24-106.8-53.8 328 307z" />
  <path fill="color(display-p3 .1098 .1098 .1098)"
    d="m937 866.7 34.8-62.6a10 10 0 0 0-12.5-14.2l-61.8 25.3a10 10 0 0 0-4.6 4l-40 62.4a10 10 0 0 0 2.5 13.5l47.6 34.4q1 .8 2.2 1.2l56.8 55c10.1 4 46.3-55.2 38.6-63l-62-44a10 10 0 0 1-1.6-12" />
  <path fill="color(display-p3 .1098 .1098 .1098)" d="m1216.7 912.2-250.1-84.3-49.8 33.6 33.1 50.7z" />
  <path fill="color(display-p3 .9216 .698 .2784)"
    d="m297.7 671-37.2 22.3 106.8 33 21.8-4zm71.7 97.5-44.5 21.2 88 20.3h20.8v-12.8zm91.5 105.8h-90l69.7 31.2 34.6-19.3zm85 48.4h-40.4l-101.9 84.1 173.1-55.3-6-11.4-60.3 11.8 37.6-21.7zm54.4 77.2-16.8 7-38.2 62 64.6-38.7zm127-27.7-53.8 36 5.3 75.5 52.4-103zm80.2 0h-26.2l37.1 90zm42.1-51.9 22 34.4-40.8-20.6L962 1057l-52-112.8zm85.7-96.4-25.7 10.5-31.7 49.5 37 26.7 39.8 15.8-49-49.1zm34.6 28.6-22.4 15.2 14.5 22.2h118.7zM1050 739l-88 27-10.9 11.4 39.6 11.2zm-51.5-75.1L925 720.8l-12.4 49 7 7.8zm-106.4-99.5-4 47.5-15.1 27.7 19.1 49.4 17.8-35h15.2zm104.2-45.8L967 551.2l-15.9 16.2-1.6 49s29-41.1 29.3-42.1zm-41.5-95.3-48.3 37.6 12.8 38zM873 351.4l-33.6 115-8.6 90.7 29 24.4 13.2-12.2 8.5-111.6zm-94.6 53.4 21 83.8s15.2-41 14.6-41.9c-.7-1-35.6-41.9-35.6-41.9" />
  <path fill="color(display-p3 .8078 .2275 .1961)"
    d="m460.2 786.9 35.6 50.5H514l13.5-10.2-28-37.8a77 77 0 0 1-39.3-2.5m90 50.5a154 154 0 0 1-18.4 39.9l18.4 8.9 20.5 3.7q-1.6-28.2-9.6-56.5zm-18.4-67.9c1 .7 27.7 34 27.7 34l11.2 1.6 10.3 7s-7.9-18.5-7.9-21.3v-13.7a59 59 0 0 0-41.3-7.6m-77.5-86.8 53.8 53.9s10.7-32.7 17.7-43.8a346 346 0 0 1-71.5-10.2M625.1 805c0 1.6-.8 30 1 39.6l-17.6 21.8c21.9 1.6 45.8-.5 71-4.7zM478.7 576.6a345 345 0 0 1 13.5 58.7l13.2 6.2 14.8-10.8s-1.4-33.4-2-34.3c-7.8-12.1-39.5-19.8-39.5-19.8m147.4 346.1s-11 26.4-21.8 38.6l56.4-4 5.6-10.1a110 110 0 0 1-40.2-24.4m62.3-20.8a107 107 0 0 1 31.6 24.4l27.8-15.8a30 30 0 0 0 13-14.8l10.6-25.5s-32-1.3-47.4 1.5a146 146 0 0 1-35.6 30.2m89.5 19.3-8.6 15.1 9.4 6.6 9.7-12.3 2.8-16.8s-5.7 5-13.3 7.4M583 566.5s-10.8 10.2-11.5 10.2h-35.1s4 48.5 12.4 63.6c8.4 15 17.8 30.6 17.8 30.6l-1 21.3 32.1 13.9s8.2 38.8 0 57.8c0 0 9.4 2 10.9 7.7l55.1-17.3 21.6-40 14-1s.3 25.2-16 43l-1 12 13.6 11.4s.2 9.4-10.6 23.3c0 0 16 10.9 24 38.9 0 0 49-5.3 68.2-16.2 0 0 33.6 47.8 56.7 60 0 0 10.4-33.9 17.7-47.4s8.2-19.6 21.2-22l21.8-30.1v-33.5l-9.6-21s-5.1 16.2-12.2 25.5c0 0-4.1-15.7-7.6-25.4s-9.2-18.2 9.4-27.6c0 0-12.8-26.6-18.6-58.7 0 0-21.2 4.2-37.5 4L808.4 666l-21.3 5.7s-1.7-32.2-8.6-36.9l-18-9.1-2-10.2s56.6 7.4 105.3-1.5c0 0-42-18.8-48.4-42-6.5-23-5.5-31-5.5-31s-17.3 8.5-60.3 0l-9 59s-14.7-47.5-14.7-49-3-23.8-3-23.8l-25.2-17.8-9.4 9.3-68.8 15-13.3 15.8 37.7 43s9.8 13.2 25 12q26.6-.3 53 2.4l7.9 16.3H711l16.3 45.5-2.4 39.5s-29.2-21.2-36.6-47.4l-58.4-8-35.1 11.2s-1-8.7 13.6-21a204 204 0 0 1 26.8-19.3z" />
  <path fill="color(display-p3 .1098 .1098 .1098)"
    d="M756 677s11.8 22.3 8.5 39.5l-11.8 36.3 6.2 27.6 28 21.8s7.3 15.8 8 13.2c.6-2.6 18.4-4 18.4-6s30.4-34.2 30.4-34.2l-8-31.7S820 732.3 810 721.1c0 0-17 1.3-17.8-.7-.7-2-13.2-11.2-36.2-43.5" />
</svg>